<svg xmlns="http://www.w3.org/2000/svg" version="1.1" width="568" height="469">
<path d="M0 0 C0.82585915 0.00291284 1.65171829 0.00582568 2.50260347 0.00882679 C3.37325455 0.00797237 4.24390563 0.00711794 5.14094007 0.00623763 C8.08141547 0.00458015 11.0218348 0.01010855 13.96230501 0.01555592 C16.06094798 0.01583776 18.15959105 0.01568012 20.25823396 0.01511341 C25.97494314 0.01482531 31.69163154 0.02072403 37.40833586 0.02768737 C43.3754568 0.03391886 49.34257817 0.03452454 55.30970186 0.03571278 C66.61799154 0.0388267 77.9262716 0.0470409 89.23455703 0.05706227 C102.10495076 0.06822152 114.97534493 0.07373338 127.84574229 0.0787577 C154.32918317 0.08922347 180.81261087 0.1075697 207.29604524 0.12908131 C207.29604524 30.81908131 207.29604524 61.50908131 207.29604524 93.12908131 C167.7727033 111.72830105 167.7727033 111.72830105 157.29116243 116.47014576 C155.33295969 117.3564498 153.37696854 118.24752509 151.42104524 119.13884693 C121.6782612 132.65954157 95.66859027 136.83528824 64.29604524 125.12908131 C58.90831346 122.82769325 53.60223643 120.36158145 48.29604524 117.87908131 C45.54787337 116.59907389 42.79762102 115.32362946 40.04604524 114.05095631 C39.30886263 113.70963673 38.57168001 113.36831715 37.81215852 113.01665455 C23.05072481 106.21885741 8.15538971 99.70924261 -6.70395476 93.12908131 C-6.72707666 81.15104572 -6.74486906 69.1730154 -6.75576693 57.19496208 C-6.76099609 51.63368719 -6.76809434 46.07242752 -6.77939421 40.51116139 C-6.79022191 35.14900712 -6.79623134 29.78686753 -6.798832 24.42470318 C-6.80068646 22.37407852 -6.80430747 20.32345471 -6.80968481 18.27283627 C-6.81689369 15.41117928 -6.81794576 12.54958374 -6.81748015 9.6879192 C-6.82107542 8.83124653 -6.8246707 7.97457386 -6.82837492 7.09194142 C-6.81641058 0.34260833 -6.77210234 0.01812421 0 0 Z " fill="#003976" transform="translate(184.70395475625992,336.8709186911583)"/>
<path d="M0 0 C0.90492188 -0.02449219 1.80984375 -0.04898438 2.7421875 -0.07421875 C18.44172679 -0.13927209 32.11073094 5.30772769 46 12 C47.37427319 12.64997646 48.74927689 13.29841056 50.125 13.9453125 C55.37646703 16.4187627 60.62557716 18.89721437 65.875 21.375 C78.745 27.315 91.615 33.255 104.875 39.375 C104.875 70.065 104.875 100.755 104.875 132.375 C34.255 132.375 -36.365 132.375 -109.125 132.375 C-109.125 101.685 -109.125 70.995 -109.125 39.375 C-95.265 33.105 -81.405 26.835 -67.125 20.375 C-61.80375 17.94125 -56.4825 15.5075 -51 13 C-34.37466787 5.5658316 -18.40777892 0.02556636 0 0 Z " fill="#003975" transform="translate(287.125,-0.375)"/>
<path d="M0 0 C13.2 0 26.4 0 40 0 C44.49602585 10.11605816 44.49602585 10.11605816 45.88671875 14.875 C46.18513672 15.87917969 46.48355469 16.88335937 46.79101562 17.91796875 C47.08685547 18.93503906 47.38269531 19.95210937 47.6875 21 C48.29279076 23.0633182 48.90071572 25.12586613 49.51171875 27.1875 C49.77428467 28.08855469 50.03685059 28.98960937 50.30737305 29.91796875 C50.81581094 31.96506044 50.81581094 31.96506044 52 33 C52.35191406 31.9584375 52.70382812 30.916875 53.06640625 29.84375 C53.56475644 28.39571361 54.06347506 26.94780399 54.5625 25.5 C54.79001953 24.82324219 55.01753906 24.14648438 55.25195312 23.44921875 C58.05238296 15.37525222 61.53541026 7.91906226 65 0 C76.88 0 88.76 0 101 0 C103.45617117 4.91234234 105.65352096 9.40400252 107.578125 14.46875 C108.01640625 15.61601562 108.4546875 16.76328125 108.90625 17.9453125 C109.3496875 19.11835938 109.793125 20.29140625 110.25 21.5 C110.93835938 23.30597656 110.93835938 23.30597656 111.640625 25.1484375 C112.7641071 28.09757801 113.88378941 31.04810137 115 34 C115.2266333 33.21874756 115.4532666 32.43749512 115.68676758 31.63256836 C116.72412581 28.06620322 117.76824891 24.50185268 118.8125 20.9375 C119.16892578 19.70837891 119.52535156 18.47925781 119.89257812 17.21289062 C120.24384766 16.01728516 120.59511719 14.82167969 120.95703125 13.58984375 C121.43619995 11.94810181 121.43619995 11.94810181 121.92504883 10.27319336 C123.07449925 6.77315205 124.54881898 3.38608905 126 0 C139.2 0 152.4 0 166 0 C165.11332337 4.43338315 164.04801573 7.29633308 162.078125 11.28515625 C161.78160034 11.89073364 161.48507568 12.49631104 161.17956543 13.12023926 C160.54053808 14.42437164 159.89901664 15.72728431 159.25524902 17.02908325 C157.54308575 20.49244546 155.84993268 23.96507212 154.15625 27.4375 C153.80995544 28.14661026 153.46366089 28.85572052 153.10687256 29.58631897 C148.99312467 38.0312386 145.05590246 46.55655631 141.12597656 55.08813477 C140.62549805 56.17408936 140.12501953 57.26004395 139.609375 58.37890625 C138.9592041 59.79538452 138.9592041 59.79538452 138.29589844 61.24047852 C136.91353263 64.18412597 135.45437241 67.09125518 134 70 C121.79 70 109.58 70 97 70 C91.78548396 58.09222458 86.8639491 46.40474881 83 34 C82.58488159 35.10287354 82.58488159 35.10287354 82.16137695 36.22802734 C80.8839091 39.61245311 79.59826284 42.9937173 78.3125 46.375 C77.87744141 47.53128906 77.44238281 48.68757813 76.99414062 49.87890625 C76.55908203 51.01972656 76.12402344 52.16054687 75.67578125 53.3359375 C75.28302002 54.37282715 74.89025879 55.4097168 74.4855957 56.47802734 C72.54275876 61.08400363 70.2356043 65.5287914 68 70 C56.12 70 44.24 70 32 70 C22.6419159 51.28383181 13.48144409 32.48761631 4.6875 13.5 C4.2133667 12.48550781 3.7392334 11.47101563 3.25073242 10.42578125 C2.60648315 9.02392578 2.60648315 9.02392578 1.94921875 7.59375 C1.57112061 6.77583984 1.19302246 5.95792969 0.8034668 5.11523438 C0 3 0 3 0 0 Z " fill="#003975" transform="translate(402,156)"/>
<path d="M0 0 C17.66570224 -0.08021762 17.66570224 -0.08021762 25.328125 -0.09765625 C30.51045951 -0.10950742 35.69272188 -0.12336239 40.875 -0.15087891 C98.06369952 -0.44624442 98.06369952 -0.44624442 109.625 8.5 C112.956518 12.00686105 113.87296432 13.6026075 114.3125 18.4375 C113.86359429 23.55502504 112.27418566 25.85323291 108.5 29.25 C106 31 106 31 103 32 C103.59167969 32.29132813 104.18335937 32.58265625 104.79296875 32.8828125 C110.05714729 35.61365879 113.92888677 37.84845523 117 43 C117.96509827 47.71347102 117.30018613 51.22995731 115.5625 55.6875 C110.04953575 63.95694637 100.19668591 66.81830444 91 69 C85.77323708 69.89146572 80.77405257 70.13849183 75.49438477 70.11352539 C74.67406265 70.11367142 73.85374054 70.11381744 73.00856018 70.1139679 C70.31948119 70.11327584 67.63047302 70.10551679 64.94140625 70.09765625 C63.06811053 70.09578956 61.19481433 70.09436684 59.32151794 70.09336853 C54.40771114 70.08956315 49.49393422 70.07974988 44.58013916 70.06866455 C38.67544421 70.05660221 32.77073923 70.05203876 26.86603546 70.04621124 C17.91066957 70.03653698 8.95536916 70.01736659 0 70 C0 46.9 0 23.8 0 0 Z M37 17 C37 19.97 37 22.94 37 26 C41.6081187 26.07436755 46.21588514 26.12870394 50.82446289 26.16479492 C52.39093107 26.17984622 53.95735736 26.20029207 55.52368164 26.22631836 C57.78021606 26.26286433 60.03619153 26.27976261 62.29296875 26.29296875 C62.98899704 26.30845261 63.68502533 26.32393646 64.40214539 26.33988953 C68.79122188 26.3413957 71.45844685 25.59993783 75 23 C74.50243908 20.24358584 74.50243908 20.24358584 73 18 C68.28668417 17.16034966 63.75375119 16.88109444 58.97265625 16.90234375 C57.04389648 16.90717773 57.04389648 16.90717773 55.07617188 16.91210938 C53.73828055 16.92046198 52.40038993 16.92892689 51.0625 16.9375 C49.69726726 16.94252341 48.33203274 16.94708483 46.96679688 16.95117188 C43.64448543 16.96291149 40.32226592 16.97933321 37 17 Z M37 42 C37 45.63 37 49.26 37 53 C42.03536777 53.07432418 47.07041408 53.12868401 52.10620117 53.16479492 C53.81817184 53.1798534 55.53010411 53.20030455 57.24194336 53.22631836 C59.70696505 53.2628319 62.17147535 53.27975562 64.63671875 53.29296875 C65.39836838 53.30845261 66.16001801 53.32393646 66.94474792 53.33988953 C71.45237647 53.34130741 74.4760738 52.91125679 78 50 C78.41780879 47.37305578 78.41780879 47.37305578 78 45 C72.53931025 41.84960207 66.80476934 41.8768398 60.6328125 41.90234375 C59.95322479 41.9037587 59.27363708 41.90517365 58.57345581 41.90663147 C56.42392388 41.91218482 54.27449992 41.92472831 52.125 41.9375 C50.65885568 41.94252104 49.19270971 41.94708289 47.7265625 41.95117188 C44.15100717 41.96213889 40.57551414 41.97937081 37 42 Z " fill="#003976" transform="translate(4,156)"/>
<path d="M0 0 C45.21 0 90.42 0 137 0 C137.33 0.66 137.66 1.32 138 2 C135.29096708 9.8260951 131.13486352 14.79701289 123.85546875 18.7890625 C123.2546196 19.12056305 122.65377045 19.4520636 122.03471375 19.79360962 C113.91593668 24.22035098 105.60447266 28.28585347 97.3125 32.375 C87.85676003 37.04785581 78.42163437 41.74100164 69.10546875 46.6875 C57.43120129 52.87913644 45.62096854 58.80091757 33.80566406 64.71728516 C30.58981603 66.32800592 27.37778106 67.94619262 24.16644287 69.56588173 C21.66864383 70.82405827 19.16820474 72.0769143 16.66699219 73.32828903 C14.90629224 74.21087661 13.14842973 75.09911743 11.390625 75.98745728 C10.33101563 76.51576141 9.27140625 77.04406555 8.1796875 77.58837891 C7.24882324 78.05563385 6.31795898 78.52288879 5.35888672 79.00430298 C3 80 3 80 0 80 C0 53.6 0 27.2 0 0 Z " fill="#003976" transform="translate(419,337)"/>
<path d="M0 0 C4.53167776 0.90633555 7.43588261 2.03320474 11.50830078 4.07592773 C12.14175415 4.39163223 12.77520752 4.70733673 13.42785645 5.03260803 C15.51995758 6.07715649 17.60763223 7.13024095 19.6953125 8.18359375 C21.16699143 8.92096528 22.63890943 9.65785985 24.11105347 10.39430237 C27.20462284 11.94338916 30.29618965 13.49637706 33.38623047 15.05249023 C37.28893129 17.01780038 41.19494655 18.97639937 45.10230732 20.9324255 C58.74483463 27.76282749 72.38106574 34.59533477 85.84815979 41.76730347 C90.6855599 44.33568513 95.57172839 46.77919989 100.50390625 49.16015625 C101.17730042 49.48700912 101.85069458 49.813862 102.54449463 50.15061951 C105.23127307 51.45429832 107.9177793 52.75756557 110.61743164 54.03442383 C120.92240776 58.92203865 130.43718196 64.27004465 137 74 C137.75 76.6875 137.75 76.6875 138 79 C137 80 137 80 134.7373724 80.12304783 C133.22332742 80.12166514 133.22332742 80.12166514 131.67869568 80.12025452 C130.52458191 80.12162918 129.37046814 80.12300385 128.18138123 80.12442017 C126.90392532 80.12082489 125.62646942 80.11722961 124.31030273 80.11352539 C122.96041872 80.11324352 121.61053456 80.11340125 120.26065063 80.1139679 C116.58519392 80.11425587 112.90976957 80.10835916 109.2343204 80.10139394 C105.39726851 80.09516038 101.56021596 80.0945566 97.72315979 80.09336853 C90.45228782 80.09025522 83.18143081 80.08204183 75.91056544 80.07201904 C66.08887685 80.05877265 56.26718419 80.053358 46.44548893 80.04751682 C30.96364807 80.03810194 15.48183879 80.01818303 0 80 C0 53.6 0 27.2 0 0 Z " fill="#003975" transform="translate(419,52)"/>
<path d="M0 0 C45.21 0 90.42 0 137 0 C137 26.4 137 52.8 137 80 C132.94300811 79.18860162 130.53278172 78.4522263 126.96044922 76.65844727 C125.49138626 75.92616661 125.49138626 75.92616661 123.99264526 75.17909241 C122.41460617 74.38081276 122.41460617 74.38081276 120.8046875 73.56640625 C119.7026297 73.01444077 118.6005719 72.46247528 117.46511841 71.89378357 C114.52750192 70.42075346 111.59266011 68.94236987 108.65893555 67.46160889 C105.74535303 65.99315453 102.82743031 64.533369 99.91015625 63.07226562 C89.00807548 57.60205892 78.14602407 52.06871906 67.36943054 46.35508728 C60.70019081 42.82346198 53.95672886 39.46131642 47.1875 36.125 C38.34535365 31.72114355 29.52746029 27.27668614 20.8125 22.625 C19.94713623 22.17398926 19.08177246 21.72297852 18.19018555 21.25830078 C12.28539236 18.06178212 6.06682741 14.43517211 2 9 C1.34 6.03 0.68 3.06 0 0 Z " fill="#003976" transform="translate(14,337)"/>
<path d="M0 0 C0 26.4 0 52.8 0 80 C-45.21 80 -90.42 80 -137 80 C-135.80988707 72.85932241 -133.73180026 68.82857037 -127.9230957 64.42578125 C-118.80719072 58.61968194 -109.19633289 53.81531659 -99.5625 48.9375 C-97.72620227 48.00258503 -95.89010388 47.06727842 -94.05419922 46.1315918 C-82.46902676 40.23419792 -70.85132811 34.40301415 -59.21118164 28.61499023 C-52.93120537 25.48697335 -46.69384626 22.29507229 -40.5 19 C-33.01915368 15.02553731 -25.48617837 11.15705244 -17.92163086 7.34472656 C-16.64794221 6.70197579 -15.37530253 6.05714183 -14.10375977 5.41015625 C-12.32219053 4.50445671 -10.53617818 3.60751327 -8.75 2.7109375 C-7.71359375 2.18806152 -6.6771875 1.66518555 -5.609375 1.12646484 C-3 0 -3 0 0 0 Z " fill="#003975" transform="translate(151,52)"/>
<path d="M0 0 C5.89911764 5.42022248 9.42476516 10.80850554 10.3125 18.8203125 C10.6557427 27.20830609 8.6863941 33.55711745 4.375 40.6875 C-11.58280754 56.22536524 -34.62006392 59.22061478 -56 59 C-75.49049775 58.29522698 -95.18008696 55.40994049 -109.79296875 41.44140625 C-115.97540346 34.6024298 -117.76663467 28.20677878 -117.34765625 19.04296875 C-116.42226834 10.94322514 -113.03852076 5.47099061 -107 0 C-80.53489533 -19.27156951 -26.4568454 -21.61389743 0 0 Z M-71.9375 10.4375 C-76.26769318 15.81743698 -76.68606715 20.22508686 -76 27 C-74.33241205 31.73946048 -72.27160444 34.36432918 -68 37 C-59.05167792 40.70989154 -50.17283113 41.43459887 -41.04296875 37.9765625 C-36.72767902 35.9138045 -33.7769476 33.589211 -31.625 29.1875 C-30.32581018 22.56163192 -30.37950137 17.69023512 -33.6640625 11.76171875 C-36.97287723 7.39834026 -41.72810984 5.82590373 -47 5 C-56.17920968 4.38171127 -64.61737617 4.36335469 -71.9375 10.4375 Z " fill="#003975" transform="translate(246,169)"/>
<path d="M0 0 C5.67830078 -0.02464705 11.35657069 -0.04283462 17.03491211 -0.05493164 C18.96818585 -0.05997256 20.90145576 -0.06680519 22.8347168 -0.07543945 C25.60726872 -0.08751565 28.37977041 -0.09323057 31.15234375 -0.09765625 C32.45702858 -0.10539818 32.45702858 -0.10539818 33.78807068 -0.11329651 C35.85905814 -0.11349185 37.92994324 -0.06208168 40 0 C41.5365316 1.5365316 41.13214105 2.94882003 41.1418457 5.08911133 C41.14888016 5.95703812 41.15591461 6.8249649 41.16316223 7.7191925 C41.16732651 8.66392929 41.17149078 9.60866608 41.17578125 10.58203125 C41.19898155 12.5657658 41.22309897 14.54948979 41.24804688 16.53320312 C41.28317278 19.67365547 41.31250522 22.8137208 41.32592773 25.9543457 C41.34138722 28.97655621 41.38158931 31.99762229 41.42578125 35.01953125 C41.42387283 35.95819534 41.42196442 36.89685944 41.41999817 37.8639679 C41.46147479 43.07335296 41.46147479 43.07335296 43.88842773 47.54858398 C50.525816 52.11087711 58.8214504 52.47697167 66.671875 51.75390625 C71.36947972 50.86325301 74.54386691 49.45613309 78 46 C79.15291684 43.69416631 79.15397338 42.30133113 79.20532227 39.73388672 C79.22526749 38.85312469 79.24521271 37.97236267 79.26576233 37.06491089 C79.28247482 36.11278717 79.29918732 35.16066345 79.31640625 34.1796875 C79.3475779 32.71899338 79.3475779 32.71899338 79.37937927 31.22879028 C79.44488598 28.11093353 79.50376497 24.99299097 79.5625 21.875 C79.60568415 19.76431396 79.6492984 17.65363667 79.69335938 15.54296875 C79.80137977 10.36206593 79.90044493 5.18110016 80 0 C93.53 0 107.06 0 121 0 C121.06913624 6.1019133 121.12879071 12.20244945 121.16479492 18.30444336 C121.17981521 20.37708154 121.20023747 22.44968829 121.22631836 24.5222168 C121.26300024 27.51358836 121.27979435 30.5045371 121.29296875 33.49609375 C121.30845261 34.41208847 121.32393646 35.32808319 121.33988953 36.27183533 C121.34188107 44.00827511 120.09853474 51.71686447 114.625 57.59765625 C97.19654987 72.63807355 70.16891678 73.08116306 48.36987305 71.5546875 C33.48492664 70.27058742 16.15444395 68.1807934 5.5 56.5625 C0.07078708 49.95806111 -0.42404391 43.46577553 -0.29296875 35.25390625 C-0.28872391 34.24279282 -0.28447906 33.23167938 -0.28010559 32.18992615 C-0.26339754 28.98050599 -0.22575953 25.77172835 -0.1875 22.5625 C-0.17244301 20.37826432 -0.15875638 18.19401873 -0.14648438 16.00976562 C-0.11351991 10.6729602 -0.06339943 5.33652602 0 0 Z " fill="#003976" transform="translate(269,156)"/>
<path d="M0 0 C26 0 26 0 34.0859375 5.51171875 C36.28383968 7.87228156 38.33407825 10.20643711 40.375 12.6875 C41.46877322 13.90365231 42.56904636 15.11399058 43.67578125 16.31835938 C47.98217749 21.059642 51.99760433 25.99700542 56 31 C56.33 20.77 56.66 10.54 57 0 C65.91 0 74.82 0 84 0 C84 22.77 84 45.54 84 69 C77.54277796 72.22861102 67.81957506 71.6637051 61 70 C54.21329085 66.44228752 49.3081645 60.35354885 44.3125 54.6875 C42.93668359 53.21467402 41.55584125 51.74652627 40.16992188 50.28320312 C31.03634732 40.55452098 31.03634732 40.55452098 28 36 C27.97494385 36.99443115 27.9498877 37.9888623 27.92407227 39.01342773 C27.83015118 42.69048747 27.72989381 46.3673515 27.62768555 50.04418945 C27.58427854 51.637893 27.54260781 53.2316448 27.50268555 54.82543945 C27.44512193 57.11163908 27.38138851 59.39759449 27.31640625 61.68359375 C27.29133751 62.7586039 27.29133751 62.7586039 27.26576233 63.85533142 C27.11387171 68.88612829 27.11387171 68.88612829 26 70 C17.42 70 8.84 70 0 70 C0 46.9 0 23.8 0 0 Z " fill="#003975" transform="translate(390,244)"/>
<path d="M0 0 C7.73710741 -0.10216144 15.47403824 -0.17178288 23.21166992 -0.21972656 C25.83901469 -0.23973214 28.46631556 -0.26694537 31.09350586 -0.30175781 C34.88927096 -0.35076332 38.68444289 -0.37308051 42.48046875 -0.390625 C43.63830368 -0.41127014 44.79613861 -0.43191528 45.98905945 -0.45318604 C56.6802342 -0.45606955 67.62315616 1.26084504 75.47265625 9.09375 C79.36578749 13.95269641 80.26439304 18.3251433 80 24.5 C79.27139558 29.98730206 77.70046436 33.87998186 74 38 C72.47427191 39.12832072 70.90920511 40.20504853 69.3125 41.23046875 C68.50425781 41.75406982 67.69601562 42.2776709 66.86328125 42.81713867 C66.24839844 43.20748291 65.63351562 43.59782715 65 44 C67.10356036 46.91710438 69.20795493 49.83360598 71.3125 52.75 C71.90740234 53.575 72.50230469 54.4 73.11523438 55.25 C73.98051758 56.44882812 73.98051758 56.44882812 74.86328125 57.671875 C75.39219971 58.4050293 75.92111816 59.13818359 76.46606445 59.89355469 C77.49439965 61.30569476 78.57292011 62.68252293 79.69604492 64.02050781 C81 66 81 66 81 70 C76.94335053 70.0990914 72.8871723 70.17157106 68.82958984 70.21972656 C67.4502332 70.23980642 66.07096131 70.26707666 64.69189453 70.30175781 C62.70643021 70.35042817 60.72033746 70.37086418 58.734375 70.390625 C56.94338379 70.4220459 56.94338379 70.4220459 55.11621094 70.45410156 C51.33182977 69.90263267 50.3319665 68.96235054 48 66 C47.0273637 64.68249633 46.09397432 63.33506442 45.203125 61.9609375 C44.71972656 61.21585937 44.23632812 60.47078125 43.73828125 59.703125 C43.00158203 58.55070312 43.00158203 58.55070312 42.25 57.375 C41.74339844 56.59898437 41.23679688 55.82296875 40.71484375 55.0234375 C37 49.25591728 37 49.25591728 37 47 C34.03 47 31.06 47 28 47 C28.00785522 47.93851807 28.00785522 47.93851807 28.01586914 48.89599609 C28.03661618 51.72232057 28.04965286 54.54862905 28.0625 57.375 C28.07087891 58.35984375 28.07925781 59.3446875 28.08789062 60.359375 C28.09272461 61.77089844 28.09272461 61.77089844 28.09765625 63.2109375 C28.10551147 64.51490479 28.10551147 64.51490479 28.11352539 65.84521484 C28 68 28 68 27 70 C22.68751391 70.02886537 18.37505238 70.04675255 14.0625 70.0625 C12.83080078 70.07087891 11.59910156 70.07925781 10.33007812 70.08789062 C9.16025391 70.09111328 7.99042969 70.09433594 6.78515625 70.09765625 C5.15912476 70.10551147 5.15912476 70.10551147 3.50024414 70.11352539 C1 70 1 70 0 69 C-0.09425595 66.85256451 -0.11742648 64.70198974 -0.11352539 62.55249023 C-0.11367142 61.87934784 -0.11381744 61.20620544 -0.1139679 60.51266479 C-0.11326878 58.27794216 -0.10547652 56.0433019 -0.09765625 53.80859375 C-0.09579206 52.26302638 -0.09436816 50.71745843 -0.09336853 49.17189026 C-0.0895434 45.09642923 -0.07971317 41.02100363 -0.06866455 36.94555664 C-0.05845032 32.78988118 -0.05387089 28.63420001 -0.04882812 24.47851562 C-0.03809089 16.31899413 -0.02101454 8.15950147 0 0 Z M28 17 C27.67 21.29 27.34 25.58 27 30 C29.6881249 30.08164159 32.373723 30.14079668 35.0625 30.1875 C35.81466797 30.21263672 36.56683594 30.23777344 37.34179688 30.26367188 C42.65392325 30.33266053 46.31018208 29.55476462 51 27 C52.3259856 24.62116511 52.3259856 24.62116511 52 22 C50.26635169 18.87943304 49.44004627 18.14668209 46 17 C44.59175107 16.91978001 43.18002769 16.89234023 41.76953125 16.90234375 C40.56586914 16.90717773 40.56586914 16.90717773 39.33789062 16.91210938 C38.08782227 16.92467773 38.08782227 16.92467773 36.8125 16.9375 C35.5450293 16.94426758 35.5450293 16.94426758 34.25195312 16.95117188 C32.16793845 16.96294597 30.08396023 16.9808811 28 17 Z " fill="#003874" transform="translate(197,244)"/>
<path d="M0 0 C1.17302309 1.16064943 2.32255786 2.34594983 3.4375 3.5625 C4.241875 4.42875 5.04625 5.295 5.875 6.1875 C7.54653374 8.72823128 7.93078163 10.60090331 8.4375 13.5625 C5.21179922 14.57392195 1.98144135 15.56958653 -1.25 16.5625 C-2.16201172 16.84867187 -3.07402344 17.13484375 -4.01367188 17.4296875 C-4.89990234 17.70039063 -5.78613281 17.97109375 -6.69921875 18.25 C-7.51092529 18.50136719 -8.32263184 18.75273437 -9.15893555 19.01171875 C-11.7740812 19.61098422 -13.89163723 19.86015723 -16.5625 19.5625 C-17.82236036 18.07651086 -19.07797554 16.58450427 -20.25390625 15.03125 C-23.1376897 11.79452588 -26.89969522 11.62275498 -31 11.25 C-35.146768 11.61375158 -37.92776527 12.5354364 -41.5625 14.5625 C-45.73113736 19.98172856 -46.18224414 25.93015039 -45.5625 32.5625 C-44.48696005 36.84982478 -43.14268989 40.78945114 -39.5625 43.5625 C-32.61378791 45.6728496 -26.35975681 46.15781624 -19.5625 43.5625 C-17.87436652 42.05232201 -17.87436652 42.05232201 -16.5625 40.5625 C-18.06103516 40.57990234 -18.06103516 40.57990234 -19.58984375 40.59765625 C-20.88019531 40.60667969 -22.17054687 40.61570312 -23.5 40.625 C-24.78777344 40.63660156 -26.07554688 40.64820313 -27.40234375 40.66015625 C-30.5625 40.5625 -30.5625 40.5625 -31.5625 39.5625 C-31.5625 34.2825 -31.5625 29.0025 -31.5625 23.5625 C-17.7025 23.5625 -3.8425 23.5625 10.4375 23.5625 C10.4375 46.34810513 10.4375 46.34810513 3.4375 54.375 C-6.51785016 63.39437707 -21.07602516 65.03796122 -33.94140625 64.8125 C-46.24201828 63.96326681 -58.40887156 60.88458526 -67.02734375 51.59375 C-74.31308866 41.95357862 -75.38577528 32.30005331 -74.5625 20.5625 C-72.74150493 11.72080105 -68.45883865 5.23893175 -61.2734375 -0.15625 C-44.93412308 -10.73790124 -15.56377941 -13.20475924 0 0 Z " fill="#003975" transform="translate(74.5625,250.4375)"/>
<path d="M0 0 C9.57 0 19.14 0 29 0 C33.311166 8.53199488 37.61553198 17.06732646 41.90799713 25.60874557 C43.90139048 29.57465005 45.89773567 33.53900997 47.90087891 37.5 C49.83359309 41.32199512 51.75848405 45.14783578 53.67799377 48.97647858 C54.41201506 50.4371254 55.14885333 51.89636009 55.88853455 53.35414886 C56.92339782 55.39487701 57.9481677 57.4403782 58.97070312 59.48730469 C59.55694458 60.65090515 60.14318604 61.81450562 60.74719238 63.0133667 C62 66 62 66 62 70 C52.43 70 42.86 70 33 70 C28 60 28 60 28 58 C19.09 58 10.18 58 1 58 C0.01 60.97 -0.98 63.94 -2 67 C-2.66 67.99 -3.32 68.98 -4 70 C-6.79736328 70.34057617 -6.79736328 70.34057617 -10.3203125 70.29296875 C-11.57714844 70.28330078 -12.83398438 70.27363281 -14.12890625 70.26367188 C-16.10697266 70.2259668 -16.10697266 70.2259668 -18.125 70.1875 C-19.46482903 70.17245483 -20.80467404 70.15876613 -22.14453125 70.14648438 C-25.43008842 70.11102872 -28.71484582 70.06160849 -32 70 C-33.18415277 66.44754169 -32.50243705 65.39265807 -30.93008423 62.14123535 C-30.6038205 61.4926355 -30.27755676 60.84403564 -29.94140625 60.17578125 C-29.60563568 59.48907349 -29.26986511 58.80236572 -28.92391968 58.09484863 C-27.8129907 55.82922863 -26.68794257 53.57094084 -25.5625 51.3125 C-24.79227461 49.74932394 -24.02283283 48.18576154 -23.25415039 46.62182617 C-20.85045838 41.74070812 -18.42641143 36.86985373 -16 32 C-15.2066189 30.4049911 -14.41332348 28.80993958 -13.62011719 27.21484375 C-9.10130673 18.13251137 -4.5587771 9.06233349 0 0 Z M14 25 C13.1605118 27.10171867 12.32860344 29.20646625 11.5 31.3125 C11.0359375 32.48425781 10.571875 33.65601563 10.09375 34.86328125 C8.83537487 37.91846448 8.83537487 37.91846448 9 41 C12.63 41 16.26 41 20 41 C19.22181136 37.10905678 18.31126232 33.86563783 16.9375 30.1875 C16.57527344 29.21167969 16.21304688 28.23585938 15.83984375 27.23046875 C15.56269531 26.49441406 15.28554688 25.75835937 15 25 C14.67 25 14.34 25 14 25 Z " fill="#003875" transform="translate(317,244)"/>
<path d="M0 0 C9.57 0 19.14 0 29 0 C35.81562834 13.55797036 42.5938563 27.11574694 49.09033203 40.8293457 C52.39246772 47.78484314 55.81092714 54.67494882 59.36035156 61.5078125 C62 66.67499134 62 66.67499134 62 70 C57.92512506 70.12366555 53.85097699 70.21436476 49.7746582 70.2746582 C48.38839696 70.29979219 47.00226813 70.33390592 45.61645508 70.37719727 C43.62378963 70.43788396 41.63015467 70.46354879 39.63671875 70.48828125 C38.43748779 70.51446533 37.23825684 70.54064941 36.00268555 70.56762695 C33 70 33 70 31.15942383 67.60229492 C30.77681396 66.7435376 30.3942041 65.88478027 30 65 C29.4121875 63.948125 29.4121875 63.948125 28.8125 62.875 C28 61 28 61 28 58 C14.635 58.495 14.635 58.495 1 59 C-0.65 62.63 -2.3 66.26 -4 70 C-13.24 70 -22.48 70 -32 70 C-33.23718341 65.05126636 -32.34394422 63.95557271 -30.08422852 59.48730469 C-29.76250671 58.84298492 -29.44078491 58.19866516 -29.10931396 57.53482056 C-28.04379068 55.40795183 -26.96152262 53.29008697 -25.87890625 51.171875 C-25.13656395 49.69838158 -24.39528012 48.22435447 -23.65501404 46.74981689 C-21.70426714 42.87122642 -19.7392134 39.00005888 -17.77111816 35.13024902 C-15.76517323 31.17974702 -13.7728076 27.2224118 -11.77929688 23.265625 C-7.86613623 15.50364341 -3.93660329 7.7501187 0 0 Z M14 25 C11.03 32.92 11.03 32.92 8 41 C11.96 41 15.92 41 20 41 C18.40615011 35.63886855 16.8106711 30.29273092 15 25 C14.67 25 14.34 25 14 25 Z " fill="#003875" transform="translate(124,244)"/>
<path d="M0 0 C26.4 0 52.8 0 80 0 C80 5.61 80 11.22 80 17 C79 18 79 18 76.59155273 18.11352539 C75.54942627 18.10828857 74.5072998 18.10305176 73.43359375 18.09765625 C72.30888672 18.09443359 71.18417969 18.09121094 70.02539062 18.08789062 C68.84138672 18.07951172 67.65738281 18.07113281 66.4375 18.0625 C65.24962891 18.05798828 64.06175781 18.05347656 62.83789062 18.04882812 C59.89187774 18.03699675 56.94596319 18.02051287 54 18 C54.00222061 18.63671127 54.00444122 19.27342255 54.00672913 19.9294281 C54.0287804 26.53115276 54.04390593 33.13286704 54.05493164 39.73461914 C54.05997356 42.20142033 54.06680691 44.66821852 54.07543945 47.13500977 C54.08751125 50.67204529 54.09322956 54.20904145 54.09765625 57.74609375 C54.10281754 58.85649521 54.10797882 59.96689667 54.11329651 61.11094666 C54.11337204 62.13192947 54.11344757 63.15291229 54.11352539 64.20483398 C54.115746 65.10862289 54.11796661 66.0124118 54.12025452 66.94358826 C54 69 54 69 53 70 C51.00035018 70.08758003 48.9976389 70.10696576 46.99609375 70.09765625 C45.90224365 70.09515869 44.80839355 70.09266113 43.68139648 70.09008789 C42.28091064 70.08098389 40.8804248 70.07187988 39.4375 70.0625 C32.7859375 70.0315625 32.7859375 70.0315625 26 70 C26 52.84 26 35.68 26 18 C17.42 18 8.84 18 0 18 C0 12.06 0 6.12 0 0 Z " fill="#003975" transform="translate(486,244)"/>
</svg>
